<svg width="1300" height="1300" viewBox="0 0 1300 1300" fill="none" xmlns="http://www.w3.org/2000/svg">
<ellipse cx="377.464" cy="791.313" rx="156.273" ry="300.724" transform="rotate(-67.2837 377.464 791.313)" fill="#049C97"/>
<ellipse cx="320.023" cy="765.34" rx="112.032" ry="199.5" transform="rotate(-66.999 320.023 765.34)" fill="#FDB139"/>
<ellipse cx="254.67" cy="739.804" rx="55.5424" ry="94.0162" transform="rotate(-66.5737 254.67 739.804)" fill="#422E83"/>
<circle cx="221.674" cy="724.652" r="35" transform="rotate(-90.839 221.674 724.652)" fill="#1666DF"/>
<ellipse cx="918.854" cy="850.641" rx="156.273" ry="300.724" transform="rotate(79.0976 918.854 850.641)" fill="#049C97"/>
<ellipse cx="981.067" cy="840.467" rx="112.032" ry="199.5" transform="rotate(79.3823 981.067 840.467)" fill="#FDB139"/>
<ellipse cx="1049.63" cy="825.548" rx="55.5424" ry="94.0162" transform="rotate(79.8076 1049.63 825.548)" fill="#422E83"/>
<circle cx="1085.49" cy="819.897" r="35" transform="rotate(55.5423 1085.49 819.897)" fill="#1666DF"/>
<ellipse cx="462.305" cy="568.979" rx="156.273" ry="300.724" transform="rotate(-36.2881 462.305 568.979)" fill="#049C97"/>
<ellipse cx="426.441" cy="517.135" rx="112.032" ry="199.5" transform="rotate(-36.0035 426.441 517.135)" fill="#FDB139"/>
<ellipse cx="383.57" cy="461.59" rx="55.5424" ry="94.0162" transform="rotate(-35.5782 383.57 461.59)" fill="#422E83"/>
<circle cx="363.089" cy="431.61" r="35" transform="rotate(-59.8435 363.089 431.61)" fill="#1666DF"/>
<ellipse rx="156.273" ry="300.724" transform="matrix(-0.806051 -0.591846 -0.591846 0.806051 881.114 616.097)" fill="#049C97"/>
<ellipse rx="112.032" ry="199.5" transform="matrix(-0.808981 -0.587834 -0.587834 0.808981 916.978 564.253)" fill="#FDB139"/>
<ellipse rx="55.5424" ry="94.0162" transform="matrix(-0.813323 -0.581813 -0.581813 0.813323 959.848 508.708)" fill="#422E83"/>
<circle r="35" transform="matrix(-0.502364 -0.864656 -0.864656 0.502364 980.33 478.728)" fill="#1666DF"/>
<ellipse cx="651.004" cy="492.448" rx="156.273" ry="300.724" transform="rotate(9.66006 651.004 492.448)" fill="#049C97"/>
<ellipse cx="663.329" cy="430.625" rx="112.032" ry="199.5" transform="rotate(9.94471 663.329 430.625)" fill="#FDB139"/>
<ellipse cx="673.441" cy="361.192" rx="55.5424" ry="94.0162" transform="rotate(10.37 673.441 361.192)" fill="#422E83"/>
<circle cx="680.747" cy="325.627" r="35" transform="rotate(-13.8953 680.747 325.627)" fill="#1666DF"/>
<path d="M321.171 775.29C361.278 864.191 475.102 893.856 527 897.575C529.83 904.014 528.072 920.074 523.578 924.439C440.727 947.5 395.707 942.385 356.546 934.082C328.508 928.137 325.276 916.835 349.842 909.997C290.982 899.911 316.304 884.598 332.199 880.174C281.726 857.334 290.933 838.202 314.461 842.553C265.076 801.245 297.563 791.164 309.943 800.214C292.145 769.836 313.666 758.655 321.171 775.29Z" fill="black" fill-opacity="0.1"/>
<path d="M526.333 929.052C549.409 909 538.27 887.029 529.816 878.55C504.923 879.041 405.727 853.33 376.713 804.044C347.698 754.759 340.015 723.527 319.358 715.289C299.528 707.38 316.407 749.756 323.988 764.017C220.135 699.347 282.86 774.049 304.881 792.924C201.185 745.111 276.5 827.49 307.846 843.587C210.375 832.251 291.13 883.254 326.353 895.096C251.674 904.782 315.11 937.682 337.614 934.645C312.417 958.917 338.493 958.979 373.224 951.667C431.467 964.64 486.593 942.948 526.333 929.052Z" fill="#1666DF"/>
<path d="M340.118 793.588C382.78 871.827 489.836 891.504 538.031 891.563C541.051 897.234 540.438 911.944 536.56 916.199C461.447 942.464 419.52 940.697 382.808 935.657C356.522 932.048 352.824 921.982 375.096 914.194C320.067 908.795 342.503 893.255 356.914 888.216C308.832 870.687 316.136 852.708 338.153 855.156C289.914 820.77 319.301 809.528 331.311 816.961C312.951 790.489 332.135 778.949 340.118 793.588Z" fill="#FDF8F4"/>
<path d="M496.002 1095.7C512.692 1091.96 526.669 1063.03 530.502 1048.2C544.002 1044.7 548.002 1048.2 561.502 1051.7C555.502 1058.7 542.502 1086.7 548.002 1096.7C553.502 1106.7 576.502 1110.2 574.502 1123.7C558.002 1114.2 512.502 1113.7 504.002 1113.7C493.602 1113.7 468.002 1121.7 456.502 1125.7C458.002 1117.2 462.502 1103.2 496.002 1095.7Z" fill="#FDB139"/>
<path d="M462.617 1152.2C460.751 1116.17 496.687 1102.7 514.889 1100.46C517.857 1102.68 523.746 1110.2 523.562 1122.6C511.093 1120.41 473.36 1135.85 462.617 1152.2Z" fill="#FDB139"/>
<path d="M492.614 1151.66C486.23 1130.56 506.192 1115.91 516.97 1111.22C529.629 1110.55 555.094 1110.79 555.687 1117.16C544.364 1114.2 504.121 1135.02 492.614 1151.66Z" fill="#FDB139"/>
<path d="M553.5 1102C539.9 1096 550.167 1070.5 557 1058.5C555.833 1058 551.9 1057 545.5 1057C535.5 1076 536.5 1100 553.5 1102Z" fill="black" fill-opacity="0.1"/>
<path d="M777.508 1094.95C757.318 1090.91 738.438 1052.04 732.734 1031.89C716.366 1027.97 711.862 1033.05 696.029 1038.76C703.719 1047.99 721.362 1085.65 715.566 1099.76C709.77 1113.88 682.607 1120.22 686.023 1138.66C704.976 1124.5 759.203 1120.8 769.341 1120.24C781.744 1119.55 812.887 1128.86 826.908 1133.6C824.47 1122 818.034 1103.04 777.508 1094.95Z" fill="#FDB139"/>
<path d="M821.638 1170.45C821.113 1120.76 777.225 1104.61 755.346 1102.75C751.975 1105.99 745.526 1116.72 746.692 1133.77C761.396 1129.93 807.577 1148.68 821.638 1170.45Z" fill="#FDB139"/>
<path d="M785.822 1171.69C791.824 1142.24 766.898 1123.42 753.685 1117.69C738.537 1117.59 708.184 1119.61 707.963 1128.42C721.241 1123.59 770.827 1149.56 785.822 1171.69Z" fill="#FDB139"/>
<path d="M709.414 1107.42C725.175 1098.26 710.984 1063.87 701.917 1047.82C703.271 1047.05 707.885 1045.41 715.518 1044.99C728.896 1070.46 729.536 1103.54 709.414 1107.42Z" fill="black" fill-opacity="0.1"/>
<path d="M514.002 984.751C496.802 934.751 503.835 890.584 509.502 874.751C563.502 868.751 678.802 855.251 708.002 849.251C723.502 876.751 760.002 926.251 751.502 1003.25C743.002 1080.25 700.002 1050.25 689.502 1035.75C641.502 1064.75 589.002 1044.25 582.502 1042.25C576.002 1046.75 570.502 1056.75 552.002 1061.75C517.502 1071.25 522.502 1008.75 514.002 984.751Z" fill="#1666DF"/>
<path d="M746.5 1029.5C751.3 1017.5 752.167 995.5 752 986C749.667 985.333 742.2 984.4 731 986C737 1045 717 1048.5 703 1048.5C727 1063.5 740.5 1044.5 746.5 1029.5Z" fill="black" fill-opacity="0.1"/>
<ellipse cx="583.502" cy="927.251" rx="61" ry="56.5" fill="#FDF8F4"/>
<path d="M558.002 1011.25C560.402 990.851 551.002 921.418 546.002 889.251L500.002 882.251C497.669 891.251 493.502 913.451 495.502 930.251C498.002 951.251 496.502 994.751 493.002 1015.75C507.002 1023.75 531.002 1018.25 558.002 1011.25Z" fill="#422E83"/>
<path d="M630.002 1001.25C622.802 984.851 611.336 916.418 606.502 884.251C628.902 884.251 689.169 865.584 716.502 856.251C718.836 860.251 726.002 873.651 736.002 895.251C748.502 922.251 766.502 954.751 783.502 977.751C708.002 1014.25 660.502 1001.25 630.002 1001.25Z" fill="#422E83"/>
<path d="M783.5 978C772 962.5 733.5 897.5 716.5 856C715 857.167 710.4 860.3 704 863.5C671 925 756.117 934.5 756 956.5C755.883 978.5 730.5 992 707 1001.5C717.5 1001.5 767 988 783.5 978Z" fill="black" fill-opacity="0.1"/>
<path d="M578.502 475.251C569.702 520.851 592.169 544.918 604.502 551.251C598.502 505.251 619.502 501.251 616.502 475.251C613.502 449.251 583.713 448.251 578.502 475.251Z" fill="#1666DF"/>
<path d="M665.515 517.059C625.101 517.48 608.785 541.536 605.678 553.512C643.695 540.008 650.98 557.755 672.541 550.466C694.101 543.178 689.444 516.81 665.515 517.059Z" fill="#1666DF"/>
<g filter="url(#filter0_d_14_36)">
<path d="M665.572 437.749C599.917 471.212 598.112 528.001 605.416 552.212C653.622 496.985 683.888 523.244 711.609 492.593C739.331 461.943 704.446 417.936 665.572 437.749Z" fill="#1666DF"/>
</g>
<path d="M516.502 562.251C415.702 605.051 396.502 694.084 399.502 733.251C391.002 732.251 386.502 730.251 378.002 726.751C374.502 741.251 379.502 782.751 424.002 832.751C468.502 882.751 546.502 918.751 650.002 891.751C753.502 864.751 797.502 774.751 797.502 720.751C792.502 723.751 779.502 729.251 767.502 726.751C771.502 700.251 760.002 657.251 743.502 628.251C703.502 553.251 588.002 534.751 516.502 562.251Z" fill="#1666DF"/>
<mask id="mask0_14_36" style="mask-type:alpha" maskUnits="userSpaceOnUse" x="414" y="732" width="279" height="170">
<mask id="mask1_14_36" style="mask-type:alpha" maskUnits="userSpaceOnUse" x="377" y="550" width="421" height="352">
<path d="M516.902 562.814C416.102 605.614 396.902 694.648 399.902 733.814C391.402 732.814 386.902 730.814 378.402 727.314C374.902 741.814 379.902 783.314 424.402 833.314C468.902 883.314 546.902 919.314 650.402 892.314C753.902 865.314 797.902 775.314 797.902 721.314C792.902 724.314 779.902 729.814 767.902 727.314C771.902 700.814 760.402 657.814 743.902 628.814C703.902 553.814 588.402 535.314 516.902 562.814Z" fill="#878CFF"/>
</mask>
<g mask="url(#mask1_14_36)">
<path d="M664.002 887.751C658.961 941.345 614.654 935.444 536.657 928.108C458.661 920.772 421.961 889.345 427.002 835.751C391.002 785.251 435.502 722.796 554.912 734.027C632.908 741.363 746.502 793.751 664.002 887.751Z" fill="#878CFF"/>
</g>
</mask>
<g mask="url(#mask0_14_36)">
<rect x="300" y="586" width="462" height="418" fill="#FDF8F4"/>
</g>
<path d="M491.149 837.204C499.853 832.265 501.126 818.369 500.674 812.039C503.037 804.257 512.222 791.232 530.06 801.386C539.824 831.229 500.808 840.661 491.149 837.204Z" fill="#FDB139"/>
<path d="M490.704 837.433C499.5 821.5 501.002 808.751 484.002 788.751C485.814 784.629 510.095 799.98 526.032 801.212C527.667 825.042 503.334 833.199 490.826 837.392L490.704 837.433Z" fill="url(#paint0_linear_14_36)"/>
<path d="M467.502 789.609C488.582 772.83 514.761 770.81 525.215 771.897C534.18 785.568 537.784 806.484 527.897 821.526C517.261 806.757 483.882 791.998 467.502 789.609Z" fill="#FDB139"/>
<ellipse cx="574.002" cy="758.751" rx="33.5" ry="33" fill="white"/>
<path d="M594.502 759.251C594.502 770.497 585.177 779.751 573.502 779.751C561.828 779.751 552.502 770.497 552.502 759.251C552.502 748.005 561.828 738.751 573.502 738.751C585.177 738.751 594.502 748.005 594.502 759.251Z" fill="black" stroke="url(#paint1_linear_14_36)" stroke-width="8"/>
<ellipse cx="583.502" cy="750.251" rx="8" ry="8.5" fill="white"/>
<circle cx="566.002" cy="771.251" r="5.5" fill="white"/>
<circle cx="460.502" cy="748.751" r="30" fill="white"/>
<circle cx="460.002" cy="749.251" r="18.5" fill="black" stroke="url(#paint2_linear_14_36)" stroke-width="8"/>
<circle cx="469.002" cy="741.251" r="7.5" fill="white"/>
<circle cx="453.502" cy="759.751" r="5" fill="white"/>
<path d="M767.5 726.5C769.9 690.1 758.5 658.333 752.5 647C756.5 712.6 740.5 743 732 750C731.833 751.5 746.5 760 760.5 755C755.5 771.5 728.262 831.073 688.5 858.5C634 896.094 555.5 890 511.5 890C550.5 905.5 646 910.5 714.5 864C783 817.5 801 733 797.5 721C792.5 724 782.5 729.5 767.5 726.5Z" fill="black" fill-opacity="0.1"/>
<path d="M616.368 719.414C599.434 688.679 565.706 695.494 550.959 702.743C545.724 707.085 552.137 710.267 557.001 707.379C579.972 696.206 601.889 703.339 616.368 719.414Z" fill="black" fill-opacity="0.5"/>
<path d="M422.993 711.414C439.927 680.679 473.655 687.494 488.402 694.743C493.637 699.085 487.224 702.267 482.36 699.379C459.389 688.206 437.472 695.339 422.993 711.414Z" fill="black" fill-opacity="0.5"/>
<path d="M895.065 706.936C878.627 809.716 766.548 872.842 712.125 891.5C711.014 898.923 717.516 914.801 723.625 918C819.144 918 865.077 899.875 904.506 880.151C932.737 866.028 932.828 853.496 904.506 853.496C964.483 826.308 932.828 817.819 914.502 817.819C961.706 779.929 946.157 762.911 922.277 774.106C962.817 717.558 925.054 716.491 914.502 729.326C924.498 693.035 898.141 687.704 895.065 706.936Z" fill="black" fill-opacity="0.1"/>
<path d="M736.312 923.957C702.248 910.771 705.897 882.307 711.98 869.723C740.184 860.684 841.383 794.219 854.102 728.819C866.821 663.418 862.84 626.092 882.748 609.077C901.859 592.743 900.001 645.871 897.236 664.481C987.928 553.353 947.559 659.696 930.416 688.94C1027.74 596.422 976.315 716.058 947.559 745.834C1052.63 695.853 982.398 783.053 947.559 809.639C1035.49 791.561 977.421 852.176 950.877 857.493C989.034 874.508 959.725 884.611 917.697 889.928C857.42 926.616 786.635 923.957 736.312 923.957Z" fill="#1666DF"/>
<path d="M890.94 702.936C874.502 805.716 762.424 868.842 708 887.5C706.889 894.923 713.391 910.801 719.5 914C815.019 914 860.952 895.875 900.381 876.151C928.612 862.028 928.704 849.496 900.381 849.496C960.358 822.308 928.704 813.819 910.377 813.819C957.581 775.929 942.032 758.911 918.152 770.106C958.692 713.558 920.929 712.491 910.377 725.326C920.374 689.035 894.016 683.704 890.94 702.936Z" fill="#FDF8F4"/>
<ellipse cx="512.106" cy="604.323" rx="55" ry="18" transform="rotate(-27.4449 512.106 604.323)" fill="white" fill-opacity="0.2"/>
<defs>
<filter id="filter0_d_14_36" x="597.486" y="432.797" width="129.091" height="129.415" filterUnits="userSpaceOnUse" color-interpolation-filters="sRGB">
<feFlood flood-opacity="0" result="BackgroundImageFix"/>
<feColorMatrix in="SourceAlpha" type="matrix" values="0 0 0 0 0 0 0 0 0 0 0 0 0 0 0 0 0 0 127 0" result="hardAlpha"/>
<feOffset dy="5"/>
<feGaussianBlur stdDeviation="2.5"/>
<feComposite in2="hardAlpha" operator="out"/>
<feColorMatrix type="matrix" values="0 0 0 0 0 0 0 0 0 0 0 0 0 0 0 0 0 0 0.25 0"/>
<feBlend mode="normal" in2="BackgroundImageFix" result="effect1_dropShadow_14_36"/>
<feBlend mode="normal" in="SourceGraphic" in2="effect1_dropShadow_14_36" result="shape"/>
</filter>
<linearGradient id="paint0_linear_14_36" x1="517.533" y1="801.095" x2="493.155" y2="836.731" gradientUnits="userSpaceOnUse">
<stop stop-color="#D60000"/>
<stop offset="1" stop-color="#FF7575"/>
</linearGradient>
<linearGradient id="paint1_linear_14_36" x1="579.613" y1="755.44" x2="571.59" y2="787.096" gradientUnits="userSpaceOnUse">
<stop stop-color="#422C18"/>
<stop offset="1" stop-color="#16110D"/>
</linearGradient>
<linearGradient id="paint2_linear_14_36" x1="465.502" y1="745.751" x2="458.002" y2="774.751" gradientUnits="userSpaceOnUse">
<stop stop-color="#422C18"/>
<stop offset="1" stop-color="#16110D"/>
</linearGradient>
</defs>
</svg>
