<svg xmlns="http://www.w3.org/2000/svg" xmlns:xlink="http://www.w3.org/1999/xlink" viewBox="0 0 595.28 841.89"><defs><style>.cls-1{font-size:23.93px;fill:#3f2f7f;font-family:FuturaBT-Book, Futura Bk BT;letter-spacing:-0.03em;}.cls-2{letter-spacing:-0.01em;}.cls-3{letter-spacing:-0.01em;}.cls-4{letter-spacing:-0.01em;}.cls-5{letter-spacing:-0.01em;}.cls-6{letter-spacing:-0.02em;}.cls-7{letter-spacing:0em;}.cls-8{letter-spacing:-0.02em;}.cls-9{letter-spacing:-0.01em;}.cls-10{letter-spacing:0em;}.cls-11{letter-spacing:-0.04em;}.cls-12{letter-spacing:-0.02em;}.cls-13{letter-spacing:-0.01em;}.cls-14{letter-spacing:-0.01em;}.cls-15{letter-spacing:0em;}.cls-16{letter-spacing:-0.01em;}.cls-17{letter-spacing:0em;}.cls-18{letter-spacing:-0.02em;}.cls-19{letter-spacing:-0.02em;}.cls-20{letter-spacing:0.03em;}.cls-21{letter-spacing:-0.02em;}.cls-22{letter-spacing:0.01em;}.cls-23{letter-spacing:-0.01em;}.cls-24{letter-spacing:-0.01em;}.cls-25{letter-spacing:-0.01em;}.cls-26{letter-spacing:-0.02em;}.cls-27{letter-spacing:0em;}.cls-28{font-size:196.14px;fill:#413180;font-family:FuturaBT-Bold, Futura Md BT;font-weight:700;}.cls-29{fill:url(#linear-gradient);}.cls-30{fill:url(#linear-gradient-2);}.cls-31{fill:#76426e;}.cls-32{fill:#c95f57;}</style><linearGradient id="linear-gradient" x1="237.67" y1="388.89" x2="190.15" y2="273.31" gradientUnits="userSpaceOnUse"><stop offset="0" stop-color="#413180"/><stop offset="0.08" stop-color="#48337e"/><stop offset="0.2" stop-color="#5c3a78"/><stop offset="0.34" stop-color="#7c456e"/><stop offset="0.5" stop-color="#a85461"/><stop offset="0.61" stop-color="#c95f57"/></linearGradient><linearGradient id="linear-gradient-2" x1="276.49" y1="395.84" x2="349.36" y2="252.71" gradientUnits="userSpaceOnUse"><stop offset="0" stop-color="#413180"/><stop offset="0.08" stop-color="#47337e"/><stop offset="0.18" stop-color="#593979"/><stop offset="0.3" stop-color="#774370"/><stop offset="0.43" stop-color="#9f5164"/><stop offset="0.55" stop-color="#c95f57"/></linearGradient></defs><title>logo ppkm retouch</title><g id="nama"><text class="cls-1" transform="translate(83.89 441.36) scale(0.94 1)">P<tspan class="cls-2" x="11.44" y="0">e</tspan><tspan class="cls-3" x="23.54" y="0">n</tspan><tspan class="cls-4" x="36.64" y="0">g</tspan><tspan class="cls-5" x="50.12" y="0">e</tspan><tspan class="cls-6" x="62.22" y="0">m</tspan><tspan class="cls-7" x="82.14" y="0">b</tspan><tspan class="cls-8" x="95.74" y="0">a</tspan><tspan class="cls-9" x="108.96" y="0">ng</tspan><tspan class="cls-8" x="135.5" y="0">a</tspan><tspan class="cls-10" x="148.72" y="0">n </tspan><tspan class="cls-11" x="168.91" y="0">P</tspan><tspan class="cls-12" x="180.19" y="0">o</tspan><tspan class="cls-13" x="193.43" y="0">t</tspan><tspan class="cls-2" x="199.38" y="0">e</tspan><tspan class="cls-14" x="211.48" y="0">ns</tspan><tspan class="cls-15" x="233.89" y="0">i </tspan><tspan class="cls-16" x="246.55" y="0">d</tspan><tspan class="cls-8" x="259.99" y="0">a</tspan><tspan class="cls-17" x="273.21" y="0">n </tspan><tspan class="cls-18" x="293.41" y="0">K</tspan><tspan class="cls-19" x="307.11" y="0">a</tspan><tspan class="cls-20" x="320.32" y="0">r</tspan><tspan class="cls-21" x="329.44" y="0">y</tspan><tspan class="cls-15" x="339.6" y="0">a </tspan><tspan class="cls-22" x="360.08" y="0">M</tspan><tspan class="cls-8" x="380.28" y="0">a</tspan><tspan class="cls-23" x="393.5" y="0">h</tspan><tspan class="cls-24" x="406.6" y="0">a</tspan><tspan class="cls-25" x="419.92" y="0">s</tspan><tspan class="cls-26" x="429.33" y="0">i</tspan><tspan class="cls-27" x="434.71" y="0">s</tspan><tspan class="cls-26" x="444.51" y="0">w</tspan><tspan class="cls-17" x="460.65" y="0">a </tspan></text></g><g id="Layer_19" data-name="Layer 19"><text class="cls-28" transform="translate(72.24 409.84) scale(0.95 1)">P</text><text class="cls-28" transform="translate(358.78 409.84) scale(0.95 1)">M</text><path class="cls-29" d="M233.33,270.89c-30,5.67-39.66,42-44.66,82.33s-26,53.67-26,53.67c-3.34,7.67,8.66,0,8.66,0,29.34-16,41.67-45,41.67-45,3,6.67,61.22,12.91,73.5-25.5C299.5,295.72,263.33,265.22,233.33,270.89ZM243,330.14c-16.11,0-16.09-25,0-25S259.09,330.14,243,330.14Z"/><path class="cls-30" d="M263.67,266.22s-4.67,1-1.67,3.67,41.5,14.5,35,62c-5.76,42.08-66,43.67-66,43.67s-7.33-.34,2,6.33,33.18,21.26,63.33-.33C321,363.89,325,347.89,325,347.89s27.33,7.67,4,58.33c0,0-2.67,4,3.33,2.34s42.67-8.34,28.34-55.67c0,0-6.67-17.67-23.67-22.33,0,0,39.33-4.67,30.33-43.67,0,0-2-9.17-4.71-11.5-1.66-1.43-3.48,2.35-4.24,4.38-2,5.33-9.05,30.12-34.38,33.79C324,313.56,326.33,262.56,263.67,266.22Z"/></g><g id="Layer_22" data-name="Layer 22"><path class="cls-31" d="M326.75,288.14s3.64,6.56,1.92,13.25c-1.34,5.17,2.6,2.95,4.33.42,1.25-1.84,2.83-5.25,3.5-12.42.3-3.26-5.5-4.67-5.5-4.67l-4.25,3.42"/><path class="cls-32" d="M326.75,288.14s-2-9.75-19.25-18.5c-16.45-8.34-16.28-10.77-20.5-14s-12.5-19.5,4-29.25c0,0,17-10,34,12.25s11.5,50.75,11.5,50.75S333.75,284.39,326.75,288.14Z"/><path class="cls-31" d="M326.5,276.14s-2.25-3.5-8.25-9.25c-5-4.81-27.75-9.75-25.25-24.5s17.25-8.5,19-7,13.25,9.25,16.5,29c0,0,2,9,2,10.5S331.5,281.89,326.5,276.14Z"/><circle class="cls-32" cx="338.83" cy="237.22" r="6.33"/><circle class="cls-31" cx="338.83" cy="237.22" r="2.75"/><path class="cls-32" d="M343.17,283.89s5-12.17-1.17-18.33c-5.59-5.59-.83-19,5.83-18.67,7.2.36,8.84,7.67,9,8.83s2.42,17.17-8.66,28.67C348.17,284.39,341,292.64,343.17,283.89Z"/></g></svg>